<?xml version="1.0" encoding="UTF-8"?><svg id="Layer_1" xmlns="http://www.w3.org/2000/svg" viewBox="0 0 565.9 565.9"><defs><style>.cls-1{fill:#55bf5c;}</style></defs><path class="cls-1" d="M315.81,19.4h0c19-34.2,71.1-20.24,70.45,18.88h0c-.49,29.49,31.62,48.03,56.92,32.86h0c33.55-20.12,71.69,18.02,51.57,51.57h0c-15.17,25.3,3.37,57.41,32.86,56.92h0c39.12-.65,53.08,51.45,18.88,70.45h0c-25.78,14.32-25.78,51.4,0,65.73h0c34.2,19,20.24,71.1-18.88,70.45h0c-29.49-.49-48.03,31.62-32.86,56.92h0c20.12,33.55-18.02,71.69-51.57,51.57h0c-25.3-15.17-57.41,3.37-56.92,32.86h0c.65,39.12-51.45,53.08-70.45,18.88h0c-14.32-25.78-51.4-25.78-65.73,0h0c-19,34.2-71.1,20.24-70.45-18.88h0c.49-29.49-31.62-48.03-56.92-32.86h0c-33.55,20.12-71.69-18.02-51.57-51.57h0c15.17-25.3-3.37-57.41-32.86-56.92h0c-39.12,.65-53.08-51.45-18.88-70.45h0c25.78-14.32,25.78-51.4,0-65.73h0C-14.8,231.09-.84,178.99,38.28,179.64h0c29.49,.49,48.03-31.62,32.86-56.92h0c-20.12-33.55,18.02-71.69,51.57-51.57h0c25.3,15.17,57.41-3.37,56.92-32.86h0c-.65-39.12,51.45-53.08,70.45-18.88h0c14.32,25.78,51.4,25.78,65.73,0Z"/></svg>