<?xml version="1.0" encoding="UTF-8"?><svg id="Layer_1" xmlns="http://www.w3.org/2000/svg" viewBox="0 0 1080 1080"><defs><style>.cls-1{fill:#ef997b;}</style></defs><path class="cls-1" d="M566.94,307.41l133.83-97.97c25.94-18.99,62.09,1.88,58.62,33.84l-17.93,164.89c-1.74,16.03,7.1,31.34,21.85,37.84l151.76,66.92c29.42,12.97,29.42,54.71,0,67.69l-151.76,66.92c-14.75,6.5-23.59,21.81-21.85,37.84l17.93,164.89c3.48,31.96-32.67,52.83-58.62,33.84l-133.83-97.97c-13.01-9.52-30.69-9.52-43.7,0l-133.83,97.97c-25.94,18.99-62.09-1.88-58.62-33.84l17.93-164.89c1.74-16.03-7.1-31.34-21.85-37.84l-151.76-66.92c-29.42-12.97-29.42-54.71,0-67.69l151.76-66.92c14.75-6.5,23.59-21.81,21.85-37.84l-17.93-164.89c-3.48-31.96,32.67-52.83,58.62-33.84l133.83,97.97c13.01,9.52,30.69,9.52,43.7,0Z"/></svg>